<svg id="Layer_1" data-name="Layer 1" xmlns="http://www.w3.org/2000/svg" viewBox="0 0 1366 768"><defs><style>.cls-1{fill:none;stroke:#223d41;stroke-miterlimit:10;stroke-width:3px;}</style></defs><title>dark-g</title><path class="cls-1" d="M-.5,202.31s82.23-85.7,254.56-62.79,258.32,87.11,326.38,70.42,210-120.2,312.1-94.74,195,152.16,289.42,124.16,69-79.19,185-37.05"/><path class="cls-1" d="M-.5,204.12s88.85-76.06,259.64-56.5,252.65,80.16,323.05,64.68S793.78,94,896.91,119.82s195.48,151.25,287.81,122.65c93.13-28.84,70-79.12,182.28-38.34"/><path class="cls-1" d="M-.5,205.94S95,139.51,264.21,155.72s247,73.21,319.74,58.93,213.16-116.33,317.32-90.2,196,150.32,286.21,121.14c91.87-29.7,71-79.06,179.52-39.64"/><path class="cls-1" d="M-.5,207.75S101.59,151,269.29,163.82,510.61,230.08,585.71,217s214.73-114.39,319.93-87.93,196.42,149.39,284.61,119.64c90.6-30.57,72-79,176.75-40.93"/><path class="cls-1" d="M-.5,209.57s108.71-47.16,274.86-37.64S510,231.23,587.47,219.36,803.77,106.89,910,133.7s196.88,148.43,283,118.12c89.34-31.43,73-78.92,174-42.22"/><path class="cls-1" d="M-.5,211.38S114.83,173.86,279.44,180s230,52.35,309.79,41.68S807.1,111.18,914.37,138.32s197.36,147.47,281.41,116.62c88.08-32.32,73.94-78.86,171.22-43.51"/><path class="cls-1" d="M-.5,213.2s122-27.89,285-25.07S508.84,233.53,591,224.07,810.43,115.47,918.74,143s197.82,146.48,279.8,115.11c86.83-33.23,74.92-78.79,168.46-44.81"/><path class="cls-1" d="M-.5,215s128.58-18.26,290.09-18.79,218.66,38.45,303.16,30.19,221-106.66,330.36-78.84,198.29,145.47,278.19,113.6c85.59-34.14,75.9-78.73,165.7-46.1"/><path class="cls-1" d="M-.5,216.83s135.2-8.62,295.16-12.5,213,31.5,299.84,24.44,222.58-104.72,333-76.57,198.75,144.46,276.59,112.09C1288.4,229.23,1281,185.64,1367,216.9"/><path class="cls-1" d="M-.5,218.65s141.82,1,300.24-6.22S507.07,237,596.26,231.13s224.15-102.8,335.58-74.3,199.22,143.42,275,110.58c83.09-36,77.86-78.59,160.17-48.69"/><path class="cls-1" d="M-.5,220.46s148.44,10.65,305.31.07S506.48,238.12,598,233.48s225.72-100.86,338.19-72,199.68,142.37,273.38,109.08c81.84-37,78.84-78.53,157.41-50"/><path class="cls-1" d="M-.5,222.28s155.06,20.28,310.39,6.36,196,10.63,289.89,7.19,227.29-98.92,340.8-69.75,200.14,141.29,271.78,107.56c80.59-37.94,79.81-78.45,154.64-51.27"/><path class="cls-1" d="M-.5,224.09S161.18,254,315,236.74s190.34,3.68,286.58,1.45,228.86-97,343.4-67.49,200.6,140.21,270.18,106.06c79.34-38.93,80.79-78.39,151.88-52.56"/><path class="cls-1" d="M-.5,225.91S167.81,265.46,320,244.84s184.67-3.27,283.26-4.3,230.43-95,346-65.21,201,139.09,268.57,104.55C1296,239.93,1299.65,201.55,1367,226"/><path class="cls-1" d="M-.5,227.72s174.93,49.19,325.61,25.22,179-10.22,279.95-10,232-93.13,348.62-63,201.49,138,267,103.05c76.83-41,82.74-78.26,146.35-55.15"/><path class="cls-1" d="M-.5,229.54S181.05,288.36,330.19,261s173.34-17.17,276.62-15.79S840.38,154.06,958,184.58,1160,321.39,1223.41,286.11c75.57-42,83.73-78.19,143.59-56.44"/><path class="cls-1" d="M-.5,231.35s188.17,68.46,335.77,37.79S502.94,245,608.57,247.6s235.14-89.25,353.84-58.39,202.36,135.64,263.76,100c74.3-43.1,84.71-78.13,140.83-57.74"/><path class="cls-1" d="M-.5,233.17s194.79,78.09,340.84,44.08,162-31.08,270-27.29S847,162.64,966.78,193.83s202.78,134.45,262.16,98.52c73-44.19,85.68-78.06,138.06-59"/><path class="cls-1" d="M-.5,235s201.41,87.72,345.92,50.36,156.34-38,266.67-33,238.28-85.38,359.06-53.85,203.19,133.24,260.55,97c71.72-45.3,86.66-78,135.3-60.32"/><path class="cls-1" d="M-.5,236.8s208,97.36,351,56.65,150.68-45,263.36-38.79,239.85-83.45,361.66-51.58,203.6,132,259,95.5c70.42-46.44,87.64-77.92,132.54-61.61"/><path class="cls-1" d="M-.5,238.62s214.66,107,356.07,62.93,145-51.93,260-44.53S857,175.5,979.88,207.71s204,130.77,257.35,94c69.09-47.61,88.61-77.86,129.77-62.91"/><path class="cls-1" d="M-.5,240.43s221.28,116.63,361.14,69.22S500,250.77,617.37,259.37s243-79.58,366.88-47S1188.6,341.83,1240,304.82c67.75-48.8,89.59-77.8,127-64.2"/><path class="cls-1" d="M-.5,242.25s227.9,126.26,366.22,75.5,133.68-65.83,253.4-56S863.68,184.08,988.61,217s204.72,128.22,254.15,91c66.38-50,90.57-77.72,124.24-65.49"/><path class="cls-1" d="M-.5,244.06S234,380,370.79,325.85s128-72.78,250.09-61.77S867,188.37,993,221.58s205,126.92,252.54,89.47c65-51.26,91.55-77.66,121.48-66.79"/><path class="cls-1" d="M-.5,245.88S240.64,391.4,375.87,334s122.35-79.74,246.77-67.53,247.7-73.78,374.71-40.22,205.37,125.6,250.93,88c63.58-52.53,92.53-77.6,118.72-68.08"/><path class="cls-1" d="M-.5,247.69s247.76,155.16,381.44,94.37,116.69-86.69,243.46-73.27,249.27-71.85,377.32-38,205.67,124.27,249.33,86.45c62.12-53.81,93.5-77.52,116-69.37"/><path class="cls-1" d="M-.5,249.51S253.88,414.3,386,350.16s111-93.64,240.14-79S877,201.23,1006.08,235.46s206,122.93,247.73,84.94c60.64-55.13,94.48-77.46,113.19-70.66"/><path class="cls-1" d="M-.5,251.33s261,174.42,391.59,106.93S496.45,257.67,627.92,273.5s252.4-68,382.53-33.41,206.21,121.57,246.12,83.43c59.11-56.48,95.46-77.4,110.43-72"/><path class="cls-1" d="M-.5,253.14S267.13,437.2,396.17,366.36s99.69-107.54,233.51-90.51,254-66,385.14-31.14,206.44,120.21,244.52,81.93c57.54-57.85,96.44-77.33,107.66-73.25"/><path class="cls-1" d="M-.5,255s274.25,193.69,401.74,119.5,94-114.49,230.2-96.26S887,214.09,1019.18,249.34s206.65,118.83,242.92,80.41c55.92-59.24,97.42-77.26,104.9-74.54"/><path class="cls-1" d="M-.5,256.77S280.37,460.1,406.32,382.56s88.36-121.44,226.87-102,257.12-62.18,390.36-26.6,206.83,117.46,241.31,78.91c54.26-60.65,98.4-77.19,102.14-75.84"/><path class="cls-1" d="M-.5,258.59S287,471.55,411.39,390.67,494.09,262.26,635,282.91s258.69-60.24,393-24.32,207,116.08,239.71,77.4c52.53-62.09,99.37-77.13,99.37-77.13"/></svg>