<svg id="Layer_1" data-name="Layer 1" xmlns="http://www.w3.org/2000/svg" viewBox="0 0 1366 768"><defs><style>.cls-1{fill:none;stroke:#d1f5d9;stroke-miterlimit:10;stroke-width:3px;}</style></defs><title>light-g</title><path class="cls-1" d="M0,92s320.67-54.37,367,22.65c93.71,155.65,339.44-12.28,393.34-36.59C853.68,36,950.69,100,976.17,148S1164.41,178,1164.41,178s77.43-17.06,99.47-24.8c60.83-21.38,61-61.16,103-61.16"/><path class="cls-1" d="M0,97.77s320.85-53.78,367.56,23c92,152.27,334.3-10.62,389.79-35.35C809.57,62.13,862.71,71.27,903.61,92c31.62,16,56.13,38.9,67.48,59.05,26.21,46.24,185.13,29.36,186.16,30.18.68.54,76.11-15.34,97.71-22.34,59.69-19.14,71.24-61.12,111.93-61.12"/><path class="cls-1" d="M0,103.52s321.26-53.33,368.07,23.31c90.79,148.62,329.18-9,386.25-34.11,51.78-22.81,104.22-14.56,144.53,5,31.22,15,55.51,37,67.16,56.33,26.81,44.52,182,28.78,184.07,30.42,1.36,1.08,74.79-13.69,96-19.87,58.5-17.08,81.5-61.09,120.83-61.09"/><path class="cls-1" d="M0,109.27s321.54-52.82,368.59,23.64c89.3,145.12,324-7.33,382.7-32.87,51.34-22.35,103-14.87,142.8,3.36,30.79,14.13,54.91,35,66.84,53.61,27.48,42.78,178.91,28.21,182,30.66,2,1.63,73.47-12,94.2-17.39,57.34-14.93,91.74-61,129.72-61"/><path class="cls-1" d="M0,115s321.83-52.31,369.11,24C456.9,280.61,688,133.3,748.26,107.36c50.88-21.91,101.88-15.26,141.06,1.76,30.39,13.2,54.33,33.12,66.53,50.89,28.15,41,175.8,27.63,179.89,30.9,2.72,2.18,72.16-10.31,92.45-14.93,56.19-12.78,102-61,138.61-61"/><path class="cls-1" d="M0,120.78S322.11,69,369.62,145.07C455.9,283.2,683.38,141,745.22,114.68,795.66,93.21,846,99,884.56,114.84c30,12.28,53.74,31.18,66.21,48.16,28.83,39.28,172.69,27.06,177.8,31.15,3.4,2.72,70.85-8.63,90.7-12.46,55-10.63,112.24-61,147.5-61"/><path class="cls-1" d="M0,126.53s322.39-51.27,370.14,24.62C454.88,285.8,678.75,148.72,742.19,122c50-21,99.6-16,137.61-1.44C909.38,131.91,933,149.81,945.69,166c29.52,37.54,169.58,26.49,175.71,31.39,4.08,3.26,69.54-6.94,88.94-10,53.91-8.48,122.49-60.95,156.4-60.95"/><path class="cls-1" d="M0,132.28s322.66-50.74,370.66,24.95c83.19,131.18,303.46-.81,368.5-27.91,49.51-20.63,98.45-16.43,135.88-3,29.17,10.43,52.57,27.33,65.57,42.72,30.21,35.8,166.46,25.92,173.63,31.64,4.75,3.8,68.23-5.26,87.18-7.53,52.78-6.32,132.74-60.91,165.29-60.91"/><path class="cls-1" d="M0,138S322.93,87.81,371.18,163.3c81.63,127.73,298.3.82,365-26.66A193,193,0,0,1,870.28,132c28.77,9.5,52,25.39,65.25,40,30.91,34.06,163.35,25.34,171.54,31.88,5.43,4.34,66.93-3.57,85.43-5.06,51.65-4.16,143-60.87,174.18-60.87"/><path class="cls-1" d="M0,143.78s323.19-49.69,371.69,25.6C451.75,293.66,664.84,171.8,733.1,144a198.81,198.81,0,0,1,132.42-6.25c28.37,8.57,51.41,23.46,64.93,37.28,31.61,32.31,160.24,24.76,169.45,32.12,6.11,4.89,65.63-1.88,83.67-2.59,50.55-2,153.24-60.84,183.08-60.84"/><path class="cls-1" d="M0,149.53s323.45-49.16,372.21,25.93c78.46,120.83,288,4,357.86-24.18a205.46,205.46,0,0,1,130.69-7.86c28,7.65,50.84,21.54,64.61,34.56,32.33,30.58,157.13,24.19,167.36,32.37,6.8,5.43,64.34-.78,81.92-.13,49.4,1.86,163.49-60.8,192-60.8"/><path class="cls-1" d="M0,155.29s323.7-48.64,372.73,26.25c76.85,117.39,282.82,5.62,354.3-22.94a213.3,213.3,0,0,1,129-9.46c27.58,6.72,50.26,19.6,64.29,31.84,33.05,28.83,154,23.61,165.27,32.6,7.48,6,63,1.52,80.17,2.35,48.34,2.35,173.74-60.77,200.86-60.77"/><path class="cls-1" d="M0,161s324-48.1,373.24,26.58c75.23,114,277.66,7.21,350.76-21.7a222.43,222.43,0,0,1,127.24-11.06c27.18,5.78,49.7,17.67,64,29.11,33.77,27.09,150.91,23,163.18,32.85,8.16,6.52,61.74,3.22,78.41,4.82,47.25,4.53,184-60.74,209.76-60.74"/><path class="cls-1" d="M0,166.79s324.19-47.57,373.76,26.91c73.59,110.55,272.49,8.79,347.21-20.46a233.21,233.21,0,0,1,125.51-12.67c26.79,4.86,49.13,15.74,63.65,26.4,34.51,25.34,147.79,22.46,161.09,33.09,8.84,7.06,60.46,4.92,76.66,7.28,46.16,6.74,194.24-60.69,218.65-60.69"/><path class="cls-1" d="M0,172.54s324.42-47,374.28,27.24c71.93,107.14,267.32,10.37,343.66-19.22a246,246,0,0,1,123.78-14.27c26.4,3.92,48.57,13.8,63.33,23.67,35.25,23.59,144.68,21.89,159,33.34,9.51,7.61,59.16,6.63,74.9,9.75,45.08,8.94,204.49-60.66,227.54-60.66"/><path class="cls-1" d="M0,178.29s324.64-46.48,374.8,27.57c70.26,103.74,262.14,11.93,340.11-18A261.45,261.45,0,0,1,837,172c26,3,48,11.86,63,21,36,21.83,141.57,21.32,156.92,33.58,10.19,8.15,57.87,8.34,73.14,12.22,44,11.17,214.74-60.63,236.44-60.63"/><path class="cls-1" d="M0,184s324.86-45.92,375.31,27.9c68.58,100.34,257,13.49,336.56-16.74A280.47,280.47,0,0,1,832.2,177.72,159.53,159.53,0,0,1,894.89,196c36.76,20.06,138.46,20.75,154.83,33.83,10.87,8.69,56.58,10.06,71.39,14.68,42.93,13.41,225-60.59,245.33-60.59"/><path class="cls-1" d="M0,189.8S325.07,144.42,375.83,218c66.88,97,251.78,15,333-15.49a303.82,303.82,0,0,1,118.6-19.08A160.46,160.46,0,0,1,889.81,199c37.52,18.28,135.35,20.17,152.74,34.07,11.55,9.23,55.29,11.78,69.64,17.15,41.84,15.66,235.24-60.56,254.22-60.56"/><path class="cls-1" d="M0,195.55s325.27-44.81,376.35,28.54c65.17,93.6,246.6,16.58,329.46-14.25,44.23-16.45,86-20,116.87-20.68,24.84-.54,46.35,6,62.05,12.78,38.29,16.5,132.24,19.6,150.65,34.32,12.23,9.77,54,13.51,67.89,19.62,40.75,17.93,245.48-60.53,263.11-60.53"/><path class="cls-1" d="M0,201.3s325.46-44.24,376.86,28.87c63.45,90.24,241.41,18.11,325.92-13a372.06,372.06,0,0,1,115.14-22.28,161.6,161.6,0,0,1,61.73,10.06c39.06,14.7,129.13,19,148.56,34.55,12.91,10.32,52.71,15.25,66.13,22.09,39.66,20.22,255.74-60.48,272-60.48"/><path class="cls-1" d="M0,207.05s325.64-43.66,377.38,29.2c61.7,86.89,236.22,19.63,322.37-11.77,43.24-15.76,83.78-21.72,113.41-23.89a162.13,162.13,0,0,1,61.41,7.35c39.83,12.89,126,18.44,146.47,34.79,13.6,10.87,51.42,17,64.38,24.56,38.56,22.52,266-60.45,280.91-60.45"/><path class="cls-1" d="M0,212.8s325.8-43.07,377.9,29.53c59.94,83.54,231,21.14,318.82-10.52,42.75-15.42,82.66-22.16,111.68-25.5a162.35,162.35,0,0,1,61.08,4.62c40.61,11.08,122.91,17.87,144.4,35,14.27,11.41,50.1,18.73,62.62,27,37.44,24.82,276.23-60.42,289.8-60.42"/><path class="cls-1" d="M0,218.55s326-42.48,378.42,29.86c58.17,80.21,225.82,22.64,315.26-9.28,42.26-15.09,81.55-22.61,110-27.1a162.17,162.17,0,0,1,60.76,1.9c41.38,9.25,119.8,17.29,142.31,35.28,14.95,12,48.8,20.48,60.86,29.49,36.31,27.15,286.49-60.38,298.7-60.38"/><path class="cls-1" d="M0,224.31s326.09-41.88,378.93,30.18c56.39,76.89,220.63,24.12,311.72-8,41.76-14.75,80.42-23,108.23-28.71a162.28,162.28,0,0,1,60.44-.82c42.15,7.42,116.69,16.72,140.22,35.53,15.63,12.49,47.49,22.22,59.11,32,35.16,29.47,296.74-60.35,307.59-60.35"/><path class="cls-1" d="M0,230.06s326.21-41.25,379.45,30.51c54.59,73.58,215.42,25.6,308.17-6.8,41.26-14.42,79.29-23.51,106.5-30.31a161.41,161.41,0,0,1,60.12-3.54c42.91,5.57,113.58,16.14,138.13,35.77,16.31,13,46.17,24,57.36,34.43,34,31.79,307-60.31,316.48-60.31"/><path class="cls-1" d="M0,235.81s326.31-40.62,380,30.84c52.78,70.28,210.2,27.06,304.62-5.56,40.76-14.09,78.16-24,104.77-31.91a160.59,160.59,0,0,1,59.8-6.27c43.67,3.72,110.47,15.58,136,36,17,13.58,44.85,25.72,55.6,36.89,32.82,34.13,317.24-60.27,325.38-60.27"/><path class="cls-1" d="M0,241.56s326.38-40,380.48,31.17c51,67,205,28.51,301.08-4.32,40.26-13.77,77-24.42,103-33.52a159.35,159.35,0,0,1,59.48-9c44.42,1.85,107.36,15,133.95,36.26,17.67,14.12,43.53,27.46,53.85,39.36,31.63,36.46,327.49-60.24,334.27-60.24"/><path class="cls-1" d="M0,247.31S326.44,208,381,278.8c49.12,63.73,199.78,30,297.52-3.07,39.77-13.44,75.89-24.89,101.32-35.12A163.6,163.6,0,0,1,839,228.9c45.16-.73,104.24,14.43,131.87,36.5,18.34,14.67,42.19,29.22,52.09,41.84C1053.38,346,1360.69,247,1366.12,247"/><path class="cls-1" d="M0,253.06s326.47-38.59,381.52,31.82c47.27,60.47,194.55,31.38,294-1.83,39.27-13.12,74.74-25.36,99.59-36.72a156.17,156.17,0,0,1,58.84-14.43c45.91-1.9,101.13,13.85,129.78,36.74,19,15.21,40.86,31,50.33,44.3,29.2,41.11,348-60.17,352.06-60.17"/><path class="cls-1" d="M0,258.82S326.46,221,382,291c45.42,57.22,189.34,32.79,290.43-.59,38.77-12.8,73.58-25.83,97.86-38.32a154.26,154.26,0,0,1,58.52-17.15c46.64-3.78,98,13.27,127.69,37,19.71,15.75,39.52,32.7,48.58,46.77,28,43.42,358.24-60.13,360.95-60.13"/><path class="cls-1" d="M0,264.57S326.43,227.46,382.55,297c43.54,54,184.05,34,286.88.65,38.25-12.55,72.42-26.3,96.12-39.93,20.09-11.55,39.68-17.69,58.21-19.87,47.35-5.76,94.91,12.7,125.6,37.23,20.39,16.3,38.18,34.44,46.83,49.24,26.73,45.73,368.48-60.1,369.84-60.1"/><path class="cls-1" d="M0,270.32S326.35,234,383.07,303.12s290.59,15.95,377.72-39.64c103.42-66,201,18.55,226.48,66.58S1366,270,1366,270"/></svg>