<svg id="Layer_1" data-name="Layer 1" xmlns="http://www.w3.org/2000/svg" viewBox="0 0 1366 768"><defs><style>.cls-1{fill:none;stroke:#68a682;stroke-miterlimit:10;stroke-width:3px;}</style></defs><title>med-g</title><path class="cls-1" d="M-.5,251.3s279.55,90.36,351.61-25,360.29-145,442.06-71.93S999.56,132,1068.63,128.25C1149.2,123.89,1267.78,144,1367,251.3"/><path class="cls-1" d="M-.5,253.89s275.9,96,351.38-20.19S707.48,88.09,790.32,159c83.53,71.5,212.55-14.32,282.53-22.18,81-9.11,197.67,13.39,294.14,117.07"/><path class="cls-1" d="M-.5,256.48S271.76,358,350.65,241.06,703.57,94.89,787.47,163.61c85.31,69.87,218.69-6.2,289.6-18.22,81.46-13.81,196.19,11.06,289.9,111.09"/><path class="cls-1" d="M-.5,259.07s268.62,107.15,350.91-10.65S699.7,101.69,784.62,168.21c87.11,68.24,224.8,2,296.67-14.25C1163.16,135.49,1276,162.7,1367,259.07"/><path class="cls-1" d="M-.5,261.65s265,112.76,350.68-5.86,345.66-147.32,431.58-83c88.94,66.6,230.91,10.17,303.75-10.28,82.27-23.09,193.24,6.41,281.44,99.12"/><path class="cls-1" d="M-.5,264.24S260.83,382.6,350,263.15s342.05-147.92,429-85.74c90.78,65,237,18.41,310.82-6.31,82.65-27.66,191.76,4.08,277.21,93.14"/><path class="cls-1" d="M-.5,266.83s257.69,124,350.22,3.68S688.19,122,776.06,182c92.65,63.29,243.09,26.67,317.89-2.34,83-32.21,190.28,1.75,273,87.15"/><path class="cls-1" d="M-.5,269.42s254,129.56,350,8.46S684.4,128.72,773.21,186.62c94.53,61.62,249.18,35,325,1.63,83.43-36.7,188.81-.58,268.74,81.17"/><path class="cls-1" d="M-.5,272s250.4,135.15,349.76,13.23,331.36-149.8,421.1-94c96.43,59.94,255.27,43.3,332,5.6,83.82-41.17,187.33-2.91,264.51,75.19"/><path class="cls-1" d="M-.5,274.6s246.76,140.75,349.53,18S676.86,142.15,767.5,195.82c98.36,58.24,261.39,51.66,339.11,9.57,84.23-45.6,185.85-5.24,260.28,69.21"/><path class="cls-1" d="M-.5,277.19S242.61,423.54,348.8,300s324.32-151.13,415.85-99.54c100.29,56.52,267.5,60,346.18,13.53,84.64-50,184.38-7.56,256,63.23"/><path class="cls-1" d="M-.5,279.78s239.47,152,349.07,27.55S669.39,155.51,761.8,205c102.24,54.79,273.63,68.43,353.25,17.51,85.07-54.41,182.9-9.9,251.81,57.24"/><path class="cls-1" d="M-.5,282.37S235.33,439.92,348.34,314.7,665.68,162.16,759,209.63c104.21,53,279.77,76.84,360.33,21.48,85.51-58.78,181.41-12.23,247.57,51.26"/><path class="cls-1" d="M-.5,285s232.18,163.16,348.61,37.11S662,168.79,756.09,214.23C862.28,265.5,1042,299.5,1123.5,239.68c86-63.14,179.94-14.55,243.33,45.27"/><path class="cls-1" d="M-.5,287.54S228,456.29,347.88,329.42s310.4-154,405.36-110.59c108.18,49.48,292.11,93.72,374.48,29.42,86.44-67.48,178.46-16.88,239.1,39.29"/><path class="cls-1" d="M-.5,290.13s224.9,174.35,348.15,46.66S654.6,182,750.39,223.44c110.18,47.66,298.29,102.16,381.55,33.38,86.93-71.82,177-19.21,234.87,33.31"/><path class="cls-1" d="M-.5,292.72s221.25,180,347.91,51.43S650.92,188.58,747.54,228c112.19,45.82,304.49,110.62,388.62,37.35,87.43-76.15,175.5-21.54,230.64,27.33"/><path class="cls-1" d="M-.5,295.31s217.61,185.55,347.68,56.2S647.26,195.13,744.69,232.64c114.2,44,310.7,119.09,395.69,41.33,87.95-80.48,174-23.87,226.4,21.34"/><path class="cls-1" d="M-.5,297.9s214,191.15,347.45,61S643.59,201.67,741.83,237.24c116.23,42.09,316.93,127.56,402.77,45.3,88.47-84.8,172.55-26.2,222.17,15.36"/><path class="cls-1" d="M-.5,300.49s210.32,196.74,347.22,65.75S639.93,208.19,739,241.85c118.26,40.17,323.17,136,409.84,49.26,89-89.11,171.07-28.53,217.94,9.38"/><path class="cls-1" d="M-.5,303.08s206.68,202.34,347,70.53S636.27,214.7,736.13,246.45C856.42,284.7,1065.54,391,1153,299.68c89.56-93.42,169.6-30.85,213.71,3.4"/><path class="cls-1" d="M-.5,305.66s203,208,346.76,75.31,286.36-159.79,387-129.92c122.32,36.3,335.66,153,424,57.2,90.12-97.73,168.12-33.18,209.47-2.59"/><path class="cls-1" d="M-.5,308.25S198.89,521.8,346,388.33,629,227.65,730.43,255.65c124.36,34.33,341.93,161.47,431.05,61.17,90.68-102,166.64-35.51,205.24-8.57"/><path class="cls-1" d="M-.5,310.84S195.25,530,345.8,395.7,625.3,234.1,727.57,260.25c126.4,32.33,348.21,170,438.13,65.15,91.26-106.37,165.16-37.85,201-14.56"/><path class="cls-1" d="M-.5,313.43s192.11,224.75,346.07,89.63,276.08-162.53,379.15-138.2c128.43,30.3,354.49,178.42,445.2,69.11,91.84-110.68,163.69-40.17,196.77-20.54"/><path class="cls-1" d="M-.5,316S188,546.36,345.34,410.42,618,247,721.87,269.46c130.46,28.26,360.77,186.91,452.27,73.08,92.43-115,162.21-42.5,192.54-26.52"/><path class="cls-1" d="M-.5,318.61s184.82,235.94,345.61,99.18S614.32,253.36,719,274.06c132.49,26.2,367.07,195.39,459.34,77.05,93-119.3,160.73-44.83,188.31-32.5"/><path class="cls-1" d="M-.5,321.2s181.18,241.54,345.38,104,265.77-165.4,371.29-146.49c134.51,24.12,373.36,203.87,466.41,81,93.62-123.61,159.26-47.15,184.08-38.48"/><path class="cls-1" d="M-.5,323.79S177,570.93,344.64,432.51,607,266.13,713.31,283.27c136.54,22,379.68,212.35,473.49,85,94.23-127.94,157.78-49.49,179.84-44.47"/><path class="cls-1" d="M-.5,326.37S173.39,579.12,344.41,439.88s258.88-167.39,366.05-152c138.55,19.88,386.22,221,480.56,89,95.08-132.08,156.3-51.82,175.61-50.46"/><path class="cls-1" d="M-.5,329S169.75,587.31,344.18,447.24,599.6,278.84,707.61,292.47C848.16,310.2,1100,521.86,1195.24,385.4c95.58-136.48,154.82-54.15,171.38-56.44"/><path class="cls-1" d="M-.5,331.55S166.1,595.49,344,454.61s252-169.43,360.81-157.54c142.55,15.57,398.62,237.79,494.7,96.9s153.35-56.47,167.15-62.42"/></svg>